<svg xmlns="http://www.w3.org/2000/svg" width="512" height="512" viewBox="0 0 512 512">
  <rect width="512" height="512" fill="#fff" rx="96" />
  <g fill="#090b2c">
    <path
      d="M222.861 290.313a10.666 10.666 0 0 0-13.369 6.984l-34.25 109.157a10.666 10.666 0 0 0 6.985 13.369 10.666 10.666 0 0 0 13.37-6.984l34.25-109.155a10.666 10.666 0 0 0-6.986-13.371m50.887 15.966a10.666 10.666 0 0 0-13.372 6.984l-29.127 92.83a10.666 10.666 0 0 0 6.985 13.37 10.666 10.666 0 0 0 13.372-6.984l29.127-92.828a10.666 10.666 0 0 0-6.985-13.373" />
    <path
      d="M282.193 153.983a105.1 105.1 0 0 0-47.343-1.179c-42.687 8.747-75.635 42.962-82.766 85.949-7.133 42.985 13 86.006 50.576 108.069a10.666 10.666 0 0 0 14.6-3.799 10.666 10.666 0 0 0-3.797-14.597 83.93 83.93 0 0 1-40.335-86.181 83.93 83.93 0 0 1 66.003-68.541 83.93 83.93 0 0 1 87.642 37.056 10.666 10.666 0 0 0 14.733 3.244 10.666 10.666 0 0 0 3.244-14.73c-14.665-22.948-37.255-38.78-62.556-45.291" />
    <path
      d="M228.66 236.234a10.666 10.666 0 0 0-13.368 6.984 10.666 10.666 0 0 0 6.981 13.373l61.064 19.157a10.666 10.666 0 0 0 13.373-6.984 10.666 10.666 0 0 0-6.987-13.37z" />
    <path
      d="m222.261 236.234-63.564 19.942a10.666 10.666 0 0 0-6.983 13.372 10.666 10.666 0 0 0 13.373 6.984l63.562-19.942a10.666 10.666 0 0 0 6.984-13.373 10.666 10.666 0 0 0-13.372-6.983m122.128 0-61.065 19.16a10.666 10.666 0 0 0-6.983 13.37 10.666 10.666 0 0 0 13.372 6.984l61.064-19.158a10.666 10.666 0 0 0 6.98-13.373 10.666 10.666 0 0 0-13.368-6.983" />
    <path
      d="m427.43 210.181-83.035 26.052a10.666 10.666 0 0 0-6.985 13.371 10.666 10.666 0 0 0 13.373 6.984l83.031-26.052a10.666 10.666 0 0 0 6.984-13.37 10.666 10.666 0 0 0-13.369-6.985" />
    <path
      d="M427.43 210.181a10.67 10.67 0 0 0-6.26 5.24l-19.756 37.817a10.666 10.666 0 0 0 4.516 14.391 10.666 10.666 0 0 0 14.393-4.517l19.754-37.816a10.666 10.666 0 0 0-4.515-14.393 10.67 10.67 0 0 0-8.133-.722" />
    <path
      d="M389.617 190.435a10.67 10.67 0 0 0-6.264 5.24 10.666 10.666 0 0 0 4.52 14.393l37.815 19.752a10.666 10.666 0 0 0 14.393-4.515 10.666 10.666 0 0 0-4.515-14.393l-37.82-19.753a10.67 10.67 0 0 0-8.13-.724M159.73 255.92c-3.36.699-3.07 1.073-3.813 1.479s-1.457.837-2.265 1.35a89 89 0 0 0-5.752 4.037c-4.41 3.332-9.853 7.928-15.128 13.568-10.55 11.28-21.82 27.743-16.833 46.706 4.814 18.307 23.72 29.642 42.149 24.935 8.314-2.124 15.923-7.28 21.137-15.142 5.213-7.864 7.32-19.177 2.989-30.053-4.816-12.09-8.048-24.782-9.732-37.806a10.666 10.666 0 0 0-12.752-9.075m-5.242 29.066c2.001 8.742 4.577 17.35 7.906 25.71 1.84 4.622 1.047 7.354-.95 10.367s-5.903 5.564-8.637 6.263c-7.258 1.853-14.31-2.359-16.237-9.69v-.002c-1.96-7.45 3.38-17.726 11.783-26.709a93 93 0 0 1 6.135-5.94m193.528-4.345a10.666 10.666 0 0 0-13.823 6.037 83.95 83.95 0 0 1-74.416 53.235 10.666 10.666 0 0 0-10.176 11.137 10.666 10.666 0 0 0 11.136 10.175c41.532-1.871 78.133-28.054 93.315-66.756a10.666 10.666 0 0 0-6.036-13.826" />
  </g>
</svg>